# xmcd CD database file
#
# Track frame offsets:
#	150
#	21934
#	39004
#	58625
#	73867
#	95204
#
# Disc length: 1444 seconds
#
# Revision: 3
# Processed by: cddbd v1.4PL0 Copyright (c) Steve Scherf et al.
# Submitted via: CDex 1.40Beta9
#
DISCID=4d05a206
DTITLE=Wade Marts - Rock-A-Billy Man
DYEAR=2001
DGENRE=Country
TTITLE0=Rock-A-Billy Man
TTITLE1=The Day The Eagle Cried
TTITLE2=Heavens Airport
TTITLE3=Too Much Pride
TTITLE4=My Freedom
TTITLE5=You Make Me Feel Like A Man
EXTD=YEAR: 2001 ID3G: 2
EXTT0=
EXTT1=
EXTT2=
EXTT3=
EXTT4=
EXTT5=
PLAYORDER=
